<?xml version="1.0" encoding="UTF-8" standalone="no"?>
<!-- Created with Inkscape (http://www.inkscape.org/) -->

<svg
        version="1.1"
        id="svg2"
        viewBox="0 0 175.57333 180.76534"
        sodipodi:docname="Artwork 484.ai"
        xmlns:inkscape="http://www.inkscape.org/namespaces/inkscape"
        xmlns:sodipodi="http://sodipodi.sourceforge.net/DTD/sodipodi-0.dtd"
        xmlns="http://www.w3.org/2000/svg"
        xmlns:svg="http://www.w3.org/2000/svg">
        <defs
                id="defs6">
                <clipPath
                        clipPathUnits="userSpaceOnUse"
                        id="clipPath16">
                        <path
                                d="M 0,135.574 H 131.68 V 0 H 0 Z"
                                id="path14" />
                </clipPath>
        </defs>
        <sodipodi:namedview
                id="namedview4"
                borderopacity="0.25"
                inkscape:showpageshadow="2"
                inkscape:pageopacity="0.0"
                inkscape:pagecheckerboard="0"/>
        <g
                id="g8"
                inkscape:groupmode="layer"
                inkscape:label="Artwork 484"
                transform="matrix(1.3333333,0,0,-1.3333333,0,180.76533)">
                <g
                        id="g10">
                        <g
                                id="g12"
                                clip-path="url(#clipPath16)">
                                <g
                                        id="g18"
                                        transform="translate(123.7365,134.209)">
                                        <path
                                                d="M 0,0 C 2.767,-0.833 4.85,-3 6.25,-6.5 7.977,-10.82 8.383,-16.123 7.47,-22.41 5.763,-34.17 3.637,-46.123 1.09,-58.27 1.021,-58.585 0.777,-58.844 0.45,-58.95 l -17.18,-5.47 c -0.22,-0.072 -0.458,0.043 -0.53,0.258 -0.018,0.052 -0.025,0.107 -0.02,0.162 0.5,7.32 0.383,14.463 -0.35,21.43 -0.307,2.893 -1.153,5.54 -2.54,7.94 -1.367,2.367 -3.283,4.253 -5.75,5.66 -2.82,1.613 -5.927,2.55 -9.32,2.81 -9.18,0.707 -18.35,0.6 -27.51,-0.32 -5.82,-0.58 -11.653,-0.947 -17.5,-1.1 -4.38,-0.107 -5.94,1.987 -4.68,6.28 0.547,1.88 1.663,3.31 3.35,4.29 2.86,1.667 6.13,3.107 9.81,4.32 14.687,4.84 29.617,8.693 44.79,11.56 7.347,1.387 11.797,2.153 13.35,2.3 C -8.697,1.643 -4.153,1.253 0,0"
                                                style="fill-opacity:1;fill-rule:nonzero;stroke:none"
                                                id="path20" />
                                </g>
                                <g
                                        id="g22"
                                        transform="translate(22.5965,117.689)">
                                        <path
                                                d="m 0,0 19.26,-23.03 c 0.119,-0.145 0.098,-0.359 -0.047,-0.479 -0.033,-0.027 -0.072,-0.048 -0.113,-0.061 -3.927,-1.207 -8.127,-2.123 -12.6,-2.75 -0.506,-0.069 -0.9,-0.468 -0.96,-0.97 L 3.86,-42.06 c -0.074,-0.618 -0.462,-1.13 -1,-1.32 l -15.54,-5.53 c -0.587,-0.213 -0.797,-0.01 -0.63,0.61 l 5.02,18.27 c 0.046,0.182 -0.056,0.368 -0.226,0.415 -0.047,0.013 -0.096,0.015 -0.144,0.005 l -7.12,-1.6 c -0.72,-0.16 -0.917,0.077 -0.59,0.71 l 15.58,30.41 c 0.123,0.235 0.413,0.326 0.648,0.203 C -0.088,0.085 -0.04,0.046 0,0"
                                                style="fill-opacity:1;fill-rule:nonzero;stroke:none"
                                                id="path24" />
                                </g>
                                <g
                                        id="g26"
                                        transform="translate(65.7565,84.749)">
                                        <path
                                                d="m 0,0 c 9.45,0 17.11,-7.66 17.11,-17.11 0,-9.45 -7.66,-17.11 -17.11,-17.11 -9.45,0 -17.11,7.66 -17.11,17.11 C -17.11,-7.66 -9.45,0 0,0"
                                                style="fill-opacity:1;fill-rule:nonzero;stroke:none"
                                                id="path28" />
                                </g>
                                <g
                                        id="g30"
                                        transform="translate(123.0465,67.909)">
                                        <path
                                                d="m 0,0 -5.12,-19.41 c -0.051,-0.186 0.05,-0.379 0.226,-0.432 0.046,-0.014 0.096,-0.017 0.144,-0.008 l 6.61,1.19 c 0.733,0.133 0.937,-0.117 0.61,-0.75 L -13.14,-49.6 c -0.122,-0.235 -0.415,-0.323 -0.654,-0.197 -0.056,0.03 -0.105,0.069 -0.146,0.117 l -19.05,22.79 c -0.261,0.308 -0.218,0.77 0.095,1.032 0.094,0.078 0.205,0.133 0.325,0.158 l 13.04,2.61 c 0.358,0.072 0.626,0.365 0.66,0.72 l 1.61,16.46 c 0.037,0.396 0.277,0.739 0.63,0.9 5.307,2.46 10.73,4.26 16.27,5.4 C -0.192,0.424 -0.028,0.316 0.006,0.149 0.016,0.099 0.014,0.048 0,0"
                                                style="fill-opacity:1;fill-rule:nonzero;stroke:none"
                                                id="path32" />
                                </g>
                                <g
                                        id="g34"
                                        transform="translate(25.2565,67.719)">
                                        <path
                                                d="M 0,0 C 0.183,0.063 0.382,-0.035 0.445,-0.218 0.462,-0.27 0.468,-0.325 0.46,-0.38 -0.473,-7.873 -0.6,-15.42 0.08,-23.02 c 0.567,-6.3 3.07,-10.943 7.51,-13.93 2.827,-1.887 7.277,-3.087 13.35,-3.6 5.247,-0.447 10.51,-0.543 15.79,-0.29 7.753,0.373 15.5,0.853 23.24,1.44 2.653,0.2 4.76,-0.067 6.32,-0.8 1.68,-0.787 2.223,-2.257 1.63,-4.41 -0.793,-2.913 -2.567,-4.977 -5.32,-6.19 -4.553,-2.007 -9.203,-3.743 -13.95,-5.21 -2.8,-0.867 -7.58,-2.19 -14.34,-3.97 -11.12,-2.92 -22.363,-5.277 -33.73,-7.07 -6.18,-0.98 -11.713,-0.883 -16.6,0.29 -2.947,0.707 -5.18,2.273 -6.7,4.7 -1.033,1.647 -1.743,4.11 -2.13,7.39 -0.907,7.613 -0.297,15.167 1.83,22.66 1.58,8.38 3.273,16.737 5.08,25.07 0.068,0.312 0.288,0.565 0.58,0.67 z"
                                                style="fill-opacity:1;fill-rule:nonzero;stroke:none"
                                                id="path36" />
                                </g>
                        </g>
                </g>
        </g>
</svg>